<?xml version="1.0" encoding="UTF-8"?>
<svg xmlns="http://www.w3.org/2000/svg" xmlns:xlink="http://www.w3.org/1999/xlink" width="50px" height="50px" version="1.1">
    <g id="surface1">
        <path style=" stroke:none;fill-rule:nonzero;fill:rgb(0%,0%,0%);fill-opacity:1;" d="M 20.75 12.699219 C 21.164062 12.699219 21.5 12.363281 21.5 11.949219 L 21.5 11.148438 C 21.5 10.734375 21.164062 10.398438 20.75 10.398438 C 20.335938 10.398438 20 10.734375 20 11.148438 L 20 11.949219 C 20 12.363281 20.335938 12.699219 20.75 12.699219 Z M 20.75 12.699219 "/>
        <path style=" stroke:none;fill-rule:nonzero;fill:rgb(0%,0%,0%);fill-opacity:1;" d="M 25.550781 12.699219 C 25.964844 12.699219 26.300781 12.363281 26.300781 11.949219 L 26.300781 11.148438 C 26.300781 10.734375 25.964844 10.398438 25.550781 10.398438 C 25.136719 10.398438 24.800781 10.734375 24.800781 11.148438 L 24.800781 11.949219 C 24.800781 12.363281 25.136719 12.699219 25.550781 12.699219 Z M 25.550781 12.699219 "/>
        <path style=" stroke:none;fill-rule:nonzero;fill:rgb(0%,0%,0%);fill-opacity:1;" d="M 38.683594 31.277344 L 37.5 30.6875 L 37.5 23.777344 C 38.429688 23.460938 39.101562 22.582031 39.101562 21.550781 C 39.101562 20.253906 38.046875 19.199219 36.75 19.199219 L 33.5 19.199219 L 33.5 18.351562 C 33.5 17.9375 33.164062 17.601562 32.75 17.601562 L 31.101562 17.601562 L 31.101562 13.550781 C 31.101562 10.945312 29.839844 8.628906 27.898438 7.179688 C 27.898438 7.167969 27.898438 7.160156 27.898438 7.148438 L 27.898438 4.578125 C 28.828125 4.261719 29.5 3.382812 29.5 2.351562 C 29.5 1.054688 28.445312 0 27.148438 0 C 25.855469 0 24.800781 1.054688 24.800781 2.351562 C 24.800781 3.382812 25.472656 4.261719 26.398438 4.578125 L 26.398438 6.296875 C 25.40625 5.851562 24.308594 5.601562 23.148438 5.601562 C 21.992188 5.601562 20.894531 5.851562 19.898438 6.296875 L 19.898438 4.578125 C 20.828125 4.261719 21.5 3.382812 21.5 2.351562 C 21.5 1.054688 20.445312 0 19.148438 0 C 17.855469 0 16.800781 1.054688 16.800781 2.351562 C 16.800781 3.382812 17.472656 4.261719 18.398438 4.578125 L 18.398438 7.148438 C 18.398438 7.160156 18.402344 7.167969 18.402344 7.179688 C 16.460938 8.628906 15.199219 10.945312 15.199219 13.550781 L 15.199219 17.601562 L 13.550781 17.601562 C 13.136719 17.601562 12.800781 17.9375 12.800781 18.351562 L 12.800781 19.199219 L 9.550781 19.199219 C 8.253906 19.199219 7.199219 20.253906 7.199219 21.550781 C 7.199219 22.582031 7.871094 23.460938 8.800781 23.777344 L 8.800781 30.6875 L 7.613281 31.277344 C 7.359375 31.40625 7.199219 31.664062 7.199219 31.949219 L 7.199219 34.351562 C 7.199219 34.632812 7.359375 34.894531 7.613281 35.019531 L 9.214844 35.820312 C 9.324219 35.875 9.4375 35.898438 9.550781 35.898438 C 9.824219 35.898438 10.089844 35.75 10.222656 35.484375 C 10.40625 35.113281 10.257812 34.664062 9.886719 34.480469 L 8.699219 33.886719 L 8.699219 32.414062 L 9.550781 31.988281 L 10.398438 32.414062 L 10.398438 33.550781 C 10.398438 33.964844 10.734375 34.300781 11.148438 34.300781 C 11.5625 34.300781 11.898438 33.964844 11.898438 33.550781 L 11.898438 31.949219 C 11.898438 31.664062 11.738281 31.40625 11.484375 31.277344 L 10.300781 30.6875 L 10.300781 23.898438 L 12.800781 23.898438 L 12.800781 27.148438 C 12.800781 29.753906 14.058594 32.070312 16 33.523438 C 16 33.53125 16 33.539062 16 33.550781 L 16 38.351562 C 16 39.382812 16.671875 40.261719 17.601562 40.578125 L 17.601562 41.601562 L 15.949219 41.601562 C 15.667969 41.601562 15.414062 41.757812 15.285156 42.007812 L 13.839844 44.800781 L 13.550781 44.800781 C 13.136719 44.800781 12.800781 45.136719 12.800781 45.550781 C 12.800781 45.964844 13.136719 46.300781 13.550781 46.300781 L 20.75 46.300781 C 21.164062 46.300781 21.5 45.964844 21.5 45.550781 L 21.5 42.351562 C 21.5 41.9375 21.164062 41.601562 20.75 41.601562 L 19.101562 41.601562 L 19.101562 40.578125 C 20.027344 40.261719 20.699219 39.382812 20.699219 38.351562 L 20.699219 35.097656 C 20.714844 35.097656 20.734375 35.101562 20.75 35.101562 L 25.550781 35.101562 C 25.566406 35.101562 25.582031 35.097656 25.601562 35.097656 L 25.601562 38.351562 C 25.601562 39.382812 26.269531 40.261719 27.199219 40.578125 L 27.199219 41.601562 L 25.550781 41.601562 C 25.136719 41.601562 24.800781 41.9375 24.800781 42.351562 L 24.800781 45.550781 C 24.800781 45.964844 25.136719 46.300781 25.550781 46.300781 L 32.75 46.300781 C 33.164062 46.300781 33.5 45.964844 33.5 45.550781 C 33.5 45.136719 33.164062 44.800781 32.75 44.800781 L 32.457031 44.800781 L 31.015625 42.007812 C 30.886719 41.757812 30.628906 41.601562 30.351562 41.601562 L 28.699219 41.601562 L 28.699219 40.578125 C 29.628906 40.261719 30.300781 39.382812 30.300781 38.351562 L 30.300781 33.550781 C 30.300781 33.539062 30.300781 33.53125 30.296875 33.523438 C 32.242188 32.070312 33.5 29.753906 33.5 27.148438 L 33.5 23.898438 L 36 23.898438 L 36 30.6875 L 34.816406 31.277344 C 34.5625 31.40625 34.398438 31.664062 34.398438 31.949219 L 34.398438 33.550781 C 34.398438 33.964844 34.734375 34.300781 35.148438 34.300781 C 35.5625 34.300781 35.898438 33.964844 35.898438 33.550781 L 35.898438 32.414062 L 36.75 31.988281 L 37.601562 32.414062 L 37.601562 33.886719 L 36.414062 34.480469 C 36.042969 34.664062 35.894531 35.113281 36.078125 35.484375 C 36.210938 35.75 36.476562 35.898438 36.75 35.898438 C 36.863281 35.898438 36.976562 35.875 37.085938 35.820312 L 38.683594 35.019531 C 38.941406 34.894531 39.101562 34.632812 39.101562 34.351562 L 39.101562 31.949219 C 39.101562 31.664062 38.941406 31.40625 38.683594 31.277344 Z M 27.148438 1.5 C 27.617188 1.5 28 1.882812 28 2.351562 C 28 2.820312 27.617188 3.199219 27.148438 3.199219 C 26.679688 3.199219 26.300781 2.820312 26.300781 2.351562 C 26.300781 1.882812 26.679688 1.5 27.148438 1.5 Z M 19.148438 1.5 C 19.617188 1.5 20 1.882812 20 2.351562 C 20 2.820312 19.617188 3.199219 19.148438 3.199219 C 18.679688 3.199219 18.300781 2.820312 18.300781 2.351562 C 18.300781 1.882812 18.679688 1.5 19.148438 1.5 Z M 20 44.800781 L 15.53125 44.800781 L 16.40625 43.101562 L 20 43.101562 Z M 30.769531 44.800781 L 26.300781 44.800781 L 26.300781 43.101562 L 29.894531 43.101562 Z M 36.75 22.398438 C 36.28125 22.398438 35.898438 22.019531 35.898438 21.550781 C 35.898438 21.082031 36.28125 20.699219 36.75 20.699219 C 37.21875 20.699219 37.601562 21.082031 37.601562 21.550781 C 37.601562 22.019531 37.21875 22.398438 36.75 22.398438 Z M 23.148438 7.101562 C 26.707031 7.101562 29.601562 9.992188 29.601562 13.550781 L 29.601562 14.398438 L 16.699219 14.398438 L 16.699219 13.550781 C 16.699219 9.992188 19.59375 7.101562 23.148438 7.101562 Z M 16.699219 15.898438 L 29.601562 15.898438 L 29.601562 17.601562 L 16.699219 17.601562 Z M 9.550781 20.699219 C 10.019531 20.699219 10.398438 21.082031 10.398438 21.550781 C 10.398438 22.019531 10.019531 22.398438 9.550781 22.398438 C 9.082031 22.398438 8.699219 22.019531 8.699219 21.550781 C 8.699219 21.082031 9.082031 20.699219 9.550781 20.699219 Z M 11.742188 22.398438 C 11.84375 22.136719 11.898438 21.851562 11.898438 21.550781 C 11.898438 21.25 11.84375 20.964844 11.742188 20.699219 L 12.800781 20.699219 L 12.800781 22.398438 Z M 18.351562 39.199219 C 17.882812 39.199219 17.5 38.820312 17.5 38.351562 C 17.5 37.882812 17.882812 37.5 18.351562 37.5 C 18.820312 37.5 19.199219 37.882812 19.199219 38.351562 C 19.199219 38.820312 18.820312 39.199219 18.351562 39.199219 Z M 19.199219 36.160156 C 18.9375 36.058594 18.648438 36 18.351562 36 C 18.050781 36 17.765625 36.058594 17.5 36.160156 L 17.5 34.402344 C 18.039062 34.644531 18.605469 34.828125 19.199219 34.945312 Z M 14.300781 27.148438 L 14.300781 19.101562 L 22.398438 19.101562 L 22.398438 21.601562 L 19.949219 21.601562 C 18.214844 21.601562 16.800781 23.011719 16.800781 24.75 C 16.800781 26.488281 18.214844 27.898438 19.949219 27.898438 L 22.398438 27.898438 L 22.398438 33.601562 L 20.75 33.601562 C 17.195312 33.601562 14.300781 30.707031 14.300781 27.148438 Z M 19.949219 26.398438 C 19.039062 26.398438 18.300781 25.660156 18.300781 24.75 C 18.300781 23.839844 19.039062 23.101562 19.949219 23.101562 L 26.351562 23.101562 C 27.261719 23.101562 28 23.839844 28 24.75 C 28 25.660156 27.261719 26.398438 26.351562 26.398438 Z M 27.949219 39.199219 C 27.480469 39.199219 27.101562 38.820312 27.101562 38.351562 C 27.101562 37.882812 27.480469 37.5 27.949219 37.5 C 28.417969 37.5 28.800781 37.882812 28.800781 38.351562 C 28.800781 38.820312 28.417969 39.199219 27.949219 39.199219 Z M 28.800781 36.160156 C 28.535156 36.058594 28.25 36 27.949219 36 C 27.648438 36 27.363281 36.058594 27.101562 36.160156 L 27.101562 34.945312 C 27.691406 34.828125 28.261719 34.644531 28.800781 34.402344 Z M 32 27.148438 C 32 30.707031 29.105469 33.601562 25.550781 33.601562 L 23.898438 33.601562 L 23.898438 27.898438 L 26.351562 27.898438 C 28.085938 27.898438 29.5 26.488281 29.5 24.75 C 29.5 23.011719 28.085938 21.601562 26.351562 21.601562 L 23.898438 21.601562 L 23.898438 19.101562 L 32 19.101562 Z M 33.5 20.699219 L 34.558594 20.699219 C 34.457031 20.964844 34.398438 21.25 34.398438 21.550781 C 34.398438 21.851562 34.457031 22.136719 34.558594 22.398438 L 33.5 22.398438 Z M 33.5 20.699219 "/>
    </g>
</svg>
